<svg width="42" height="42" viewBox="0 0 42 42" fill="none" xmlns="http://www.w3.org/2000/svg">
<path d="M29.75 31.5C29.2859 31.5 28.8407 31.3156 28.5126 30.9875C28.1844 30.6593 28 30.2141 28 29.75C28 29.2859 28.1844 28.8408 28.5126 28.5126C28.8407 28.1844 29.2859 28 29.75 28C32.6445 28 35 25.6445 35 22.75C35 19.8555 32.6445 17.5 29.75 17.5C29.3335 17.5 28.882 17.5735 28.3273 17.7293L26.453 18.256L26.1275 16.3345C25.8593 14.7043 25.0205 13.2225 23.7606 12.1538C22.5008 11.085 20.9021 10.4989 19.25 10.5C18.2116 10.5016 17.1865 10.7339 16.2489 11.1801C15.3112 11.6263 14.4845 12.2753 13.8283 13.0802C13.1722 13.885 12.7031 14.8256 12.4549 15.8339C12.2068 16.8422 12.1858 17.8931 12.3935 18.9105L12.8485 21.0805L10.3355 20.9895C8.568 21 7 22.5698 7 24.5C7 26.4303 8.568 28 10.5 28C10.9641 28 11.4092 28.1844 11.7374 28.5126C12.0656 28.8408 12.25 29.2859 12.25 29.75C12.25 30.2141 12.0656 30.6593 11.7374 30.9875C11.4092 31.3156 10.9641 31.5 10.5 31.5C6.64125 31.5 3.5 28.3605 3.5 24.5C3.50191 22.9479 4.01871 21.4403 4.96941 20.2134C5.92012 18.9866 7.251 18.1098 8.7535 17.7205L8.75 17.5C8.75 11.7093 13.4592 7.00002 19.25 7.00002C21.4242 6.99626 23.5453 7.67125 25.3175 8.93081C27.0897 10.1904 28.4245 11.9717 29.1357 14.0263C34.2545 13.6045 38.5 17.7223 38.5 22.75C38.5 27.5748 34.5747 31.5 29.75 31.5ZM22.1182 24.5L14.2432 31.5893L19.4932 34.125L16.8682 40.25L24.7432 33.1625L19.4932 30.625L22.1182 24.5Z" fill="black"/>
</svg>
