<svg width="982" height="893" viewBox="0 0 982 893" fill="none" xmlns="http://www.w3.org/2000/svg">
<path d="M401.486 666.784L603.847 509L525.058 644.141C522.118 649.184 524.104 655.662 529.365 658.191L635.6 709.255C642 712.331 643.244 720.911 637.982 725.679L453.297 893L514.31 749.79C516.381 744.929 514.313 739.296 509.589 736.93L403.156 683.611C396.585 680.32 395.691 671.303 401.486 666.784Z" fill="#FFC804"/>
<g filter="url(#filter0_bii)">
<path d="M570.186 0.107068C437.887 -3.31311 322.575 75.5315 273.28 190.087C126.749 188.421 3.84581 285.441 0.0906018 430.7C-3.69884 577.282 111.762 696.492 260.089 700.327L771.272 697.446C884.553 700.374 978.688 613.727 981.526 503.913C983.504 427.399 940.638 359.826 876.14 324.891C876.169 324.042 876.194 323.193 876.216 322.343C880.701 148.862 743.687 4.5924 570.186 0.107068Z" fill="url(#paint0_linear)"/>
<path d="M273.269 191.087L273.935 191.095L274.199 190.482C323.337 76.2896 438.284 -2.30252 570.16 1.10673C743.109 5.5778 879.687 149.389 875.217 322.317C875.206 322.737 875.194 323.156 875.182 323.574C875.169 324.002 875.155 324.43 875.141 324.857L875.12 325.475L875.664 325.77C939.855 360.539 982.494 427.776 980.527 503.887C977.703 613.12 884.057 699.361 771.298 696.446L771.282 696.446L771.266 696.446L260.1 699.327C112.316 695.499 -2.68437 576.735 1.09027 430.725C4.82849 286.124 127.166 189.426 273.269 191.087Z" stroke="url(#paint1_linear)" stroke-width="2"/>
</g>
<defs>
<filter id="filter0_bii" x="-40.0001" y="-40" width="1061.59" height="780.327" filterUnits="userSpaceOnUse" color-interpolation-filters="sRGB">
<feFlood flood-opacity="0" result="BackgroundImageFix"/>
<feGaussianBlur in="BackgroundImage" stdDeviation="20"/>
<feComposite in2="SourceAlpha" operator="in" result="effect1_backgroundBlur"/>
<feBlend mode="normal" in="SourceGraphic" in2="effect1_backgroundBlur" result="shape"/>
<feColorMatrix in="SourceAlpha" type="matrix" values="0 0 0 0 0 0 0 0 0 0 0 0 0 0 0 0 0 0 127 0" result="hardAlpha"/>
<feOffset dx="5" dy="5"/>
<feGaussianBlur stdDeviation="5"/>
<feComposite in2="hardAlpha" operator="arithmetic" k2="-1" k3="1"/>
<feColorMatrix type="matrix" values="0 0 0 0 1 0 0 0 0 0.995833 0 0 0 0 0.995833 0 0 0 0.1 0"/>
<feBlend mode="normal" in2="shape" result="effect2_innerShadow"/>
<feColorMatrix in="SourceAlpha" type="matrix" values="0 0 0 0 0 0 0 0 0 0 0 0 0 0 0 0 0 0 127 0" result="hardAlpha"/>
<feOffset dx="-5" dy="-5"/>
<feGaussianBlur stdDeviation="5"/>
<feComposite in2="hardAlpha" operator="arithmetic" k2="-1" k3="1"/>
<feColorMatrix type="matrix" values="0 0 0 0 1 0 0 0 0 1 0 0 0 0 1 0 0 0 0.1 0"/>
<feBlend mode="normal" in2="effect2_innerShadow" result="effect3_innerShadow"/>
</filter>
<linearGradient id="paint0_linear" x1="740.477" y1="176.203" x2="10.333" y2="572.326" gradientUnits="userSpaceOnUse">
<stop stop-color="white" stop-opacity="0.3"/>
<stop offset="1" stop-color="white" stop-opacity="0"/>
</linearGradient>
<linearGradient id="paint1_linear" x1="242.283" y1="183.25" x2="981.283" y2="553.25" gradientUnits="userSpaceOnUse">
<stop stop-color="white"/>
<stop offset="1" stop-color="#E1E2E2"/>
</linearGradient>
</defs>
</svg>
