<svg width="32" height="32" viewBox="0 0 32 32" fill="none" xmlns="http://www.w3.org/2000/svg">
<path fill-rule="evenodd" clip-rule="evenodd" d="M3.79292 5.7071C3.4024 5.31657 3.4024 4.68341 3.79292 4.29289C4.18345 3.90236 4.81661 3.90236 5.20714 4.29289L15.5 14.5858L25.7929 4.29289C26.1834 3.90236 26.8166 3.90236 27.2071 4.29289C27.5977 4.68341 27.5977 5.31657 27.2071 5.7071L16.9142 16L27.2071 26.2929C27.5977 26.6834 27.5977 27.3166 27.2071 27.7071C26.8166 28.0976 26.1834 28.0976 25.7929 27.7071L15.5 17.4142L5.20714 27.7071C4.81661 28.0976 4.18345 28.0976 3.79292 27.7071C3.4024 27.3166 3.4024 26.6834 3.79292 26.2929L14.0858 16L3.79292 5.7071Z" fill="white"/>
</svg>
