<svg width="210" height="31" viewBox="0 0 210 31" fill="none" xmlns="http://www.w3.org/2000/svg">
<path d="M3.75999 20.54V27C3.75999 27.5333 3.87332 27.9133 4.09999 28.14C4.32666 28.3533 4.71999 28.46 5.27999 28.46H6.61999V30H4.97999C3.96666 30 3.20666 29.7667 2.69999 29.3C2.19332 28.8333 1.93999 28.0667 1.93999 27V20.54H0.519989V19.04H1.93999V16.28H3.75999V19.04H6.61999V20.54H3.75999Z" fill="black"/>
<path d="M14.2651 18.84C15.0918 18.84 15.8385 19.02 16.5051 19.38C17.1718 19.7267 17.6918 20.2533 18.0651 20.96C18.4518 21.6667 18.6451 22.5267 18.6451 23.54V30H16.8451V23.8C16.8451 22.7067 16.5718 21.8733 16.0251 21.3C15.4785 20.7133 14.7318 20.42 13.7851 20.42C12.8251 20.42 12.0585 20.72 11.4851 21.32C10.9251 21.92 10.6451 22.7933 10.6451 23.94V30H8.82515V15.2H10.6451V20.6C11.0051 20.04 11.4985 19.6067 12.1251 19.3C12.7651 18.9933 13.4785 18.84 14.2651 18.84Z" fill="black"/>
<path d="M31.6181 24.1C31.6181 24.4467 31.5981 24.8133 31.5581 25.2H22.7981C22.8648 26.28 23.2314 27.1267 23.8981 27.74C24.5781 28.34 25.3981 28.64 26.3581 28.64C27.1448 28.64 27.7981 28.46 28.3181 28.1C28.8514 27.7267 29.2248 27.2333 29.4381 26.62H31.3981C31.1048 27.6733 30.5181 28.5333 29.6381 29.2C28.7581 29.8533 27.6648 30.18 26.3581 30.18C25.3181 30.18 24.3848 29.9467 23.5581 29.48C22.7448 29.0133 22.1048 28.3533 21.6381 27.5C21.1714 26.6333 20.9381 25.6333 20.9381 24.5C20.9381 23.3667 21.1648 22.3733 21.6181 21.52C22.0714 20.6667 22.7048 20.0133 23.5181 19.56C24.3448 19.0933 25.2914 18.86 26.3581 18.86C27.3981 18.86 28.3181 19.0867 29.1181 19.54C29.9181 19.9933 30.5314 20.62 30.9581 21.42C31.3981 22.2067 31.6181 23.1 31.6181 24.1ZM29.7381 23.72C29.7381 23.0267 29.5848 22.4333 29.2781 21.94C28.9714 21.4333 28.5514 21.0533 28.0181 20.8C27.4981 20.5333 26.9181 20.4 26.2781 20.4C25.3581 20.4 24.5714 20.6933 23.9181 21.28C23.2781 21.8667 22.9114 22.68 22.8181 23.72H29.7381Z" fill="black"/>
<path d="M70.6005 2.11999L62.5205 30H58.4405L51.9605 7.55999L45.2405 30L41.2005 30.04L33.4005 2.11999H37.2805L43.3605 25.76L50.0805 2.11999H54.1605L60.5605 25.68L66.6805 2.11999H70.6005Z" fill="black"/>
<path d="M94.5839 18.2C94.5839 18.8933 94.5439 19.6267 94.4639 20.4H76.9439C77.0772 22.56 77.8106 24.2533 79.1439 25.48C80.5039 26.68 82.1439 27.28 84.0639 27.28C85.6372 27.28 86.9439 26.92 87.9839 26.2C89.0506 25.4533 89.7972 24.4667 90.2239 23.24H94.1439C93.5572 25.3467 92.3839 27.0667 90.6239 28.4C88.8639 29.7067 86.6772 30.36 84.0639 30.36C81.9839 30.36 80.1172 29.8933 78.4639 28.96C76.8372 28.0267 75.5572 26.7067 74.6239 25C73.6906 23.2667 73.2239 21.2667 73.2239 19C73.2239 16.7333 73.6772 14.7467 74.5839 13.04C75.4906 11.3333 76.7572 10.0267 78.3839 9.11999C80.0372 8.18666 81.9306 7.71999 84.0639 7.71999C86.1439 7.71999 87.9839 8.17333 89.5839 9.07999C91.1839 9.98666 92.4106 11.24 93.2639 12.84C94.1439 14.4133 94.5839 16.2 94.5839 18.2ZM90.8239 17.44C90.8239 16.0533 90.5172 14.8667 89.9039 13.88C89.2906 12.8667 88.4506 12.1067 87.3839 11.6C86.3439 11.0667 85.1839 10.8 83.9039 10.8C82.0639 10.8 80.4906 11.3867 79.1839 12.56C77.9039 13.7333 77.1706 15.36 76.9839 17.44H90.8239Z" fill="black"/>
<path d="M98.0286 18.96C98.0286 16.72 98.4819 14.76 99.3886 13.08C100.295 11.3733 101.535 10.0533 103.109 9.11999C104.709 8.18666 106.482 7.71999 108.429 7.71999C110.349 7.71999 112.015 8.13333 113.429 8.95999C114.842 9.78666 115.895 10.8267 116.589 12.08V8.07999H120.269V30H116.589V25.92C115.869 27.2 114.789 28.2667 113.349 29.12C111.935 29.9467 110.282 30.36 108.389 30.36C106.442 30.36 104.682 29.88 103.109 28.92C101.535 27.96 100.295 26.6133 99.3886 24.88C98.4819 23.1467 98.0286 21.1733 98.0286 18.96ZM116.589 19C116.589 17.3467 116.255 15.9067 115.589 14.68C114.922 13.4533 114.015 12.52 112.869 11.88C111.749 11.2133 110.509 10.88 109.149 10.88C107.789 10.88 106.549 11.2 105.429 11.84C104.309 12.48 103.415 13.4133 102.749 14.64C102.082 15.8667 101.749 17.3067 101.749 18.96C101.749 20.64 102.082 22.1067 102.749 23.36C103.415 24.5867 104.309 25.5333 105.429 26.2C106.549 26.84 107.789 27.16 109.149 27.16C110.509 27.16 111.749 26.84 112.869 26.2C114.015 25.5333 114.922 24.5867 115.589 23.36C116.255 22.1067 116.589 20.6533 116.589 19Z" fill="black"/>
<path d="M130.86 11.08V24C130.86 25.0667 131.087 25.8267 131.54 26.28C131.993 26.7067 132.78 26.92 133.9 26.92H136.58V30H133.3C131.273 30 129.753 29.5333 128.74 28.6C127.727 27.6667 127.22 26.1333 127.22 24V11.08H124.38V8.07999H127.22V2.55999H130.86V8.07999H136.58V11.08H130.86Z" fill="black"/>
<path d="M151.87 7.67999C153.523 7.67999 155.017 8.03999 156.35 8.75999C157.683 9.45333 158.723 10.5067 159.47 11.92C160.243 13.3333 160.63 15.0533 160.63 17.08V30H157.03V17.6C157.03 15.4133 156.483 13.7467 155.39 12.6C154.297 11.4267 152.803 10.84 150.91 10.84C148.99 10.84 147.457 11.44 146.31 12.64C145.19 13.84 144.63 15.5867 144.63 17.88V30H140.99V0.399994H144.63V11.2C145.35 10.08 146.337 9.21333 147.59 8.59999C148.87 7.98666 150.297 7.67999 151.87 7.67999Z" fill="black"/>
<path d="M186.576 18.2C186.576 18.8933 186.536 19.6267 186.456 20.4H168.936C169.069 22.56 169.803 24.2533 171.136 25.48C172.496 26.68 174.136 27.28 176.056 27.28C177.629 27.28 178.936 26.92 179.976 26.2C181.043 25.4533 181.789 24.4667 182.216 23.24H186.136C185.549 25.3467 184.376 27.0667 182.616 28.4C180.856 29.7067 178.669 30.36 176.056 30.36C173.976 30.36 172.109 29.8933 170.456 28.96C168.829 28.0267 167.549 26.7067 166.616 25C165.683 23.2667 165.216 21.2667 165.216 19C165.216 16.7333 165.669 14.7467 166.576 13.04C167.483 11.3333 168.749 10.0267 170.376 9.11999C172.029 8.18666 173.923 7.71999 176.056 7.71999C178.136 7.71999 179.976 8.17333 181.576 9.07999C183.176 9.98666 184.403 11.24 185.256 12.84C186.136 14.4133 186.576 16.2 186.576 18.2ZM182.816 17.44C182.816 16.0533 182.509 14.8667 181.896 13.88C181.283 12.8667 180.443 12.1067 179.376 11.6C178.336 11.0667 177.176 10.8 175.896 10.8C174.056 10.8 172.483 11.3867 171.176 12.56C169.896 13.7333 169.163 15.36 168.976 17.44H182.816Z" fill="black"/>
<path d="M195.021 11.64C195.661 10.3867 196.567 9.41333 197.741 8.71999C198.941 8.02666 200.394 7.67999 202.101 7.67999V11.44H201.141C197.061 11.44 195.021 13.6533 195.021 18.08V30H191.381V8.07999H195.021V11.64Z" fill="black"/>
<path d="M207.463 30.24C206.769 30.24 206.183 30 205.703 29.52C205.223 29.04 204.983 28.4533 204.983 27.76C204.983 27.0667 205.223 26.48 205.703 26C206.183 25.52 206.769 25.28 207.463 25.28C208.129 25.28 208.689 25.52 209.143 26C209.623 26.48 209.863 27.0667 209.863 27.76C209.863 28.4533 209.623 29.04 209.143 29.52C208.689 30 208.129 30.24 207.463 30.24Z" fill="black"/>
</svg>
